<svg width="20" height="17" viewBox="0 0 20 17" fill="none" xmlns="http://www.w3.org/2000/svg">
<path d="M0.731445 15.1514C0.731445 14.9053 0.816406 14.7002 0.986328 14.5361C1.15625 14.3721 1.36133 14.29 1.60156 14.29H18.8809C19.1211 14.29 19.3262 14.3721 19.4961 14.5361C19.6719 14.7002 19.7598 14.9053 19.7598 15.1514C19.7598 15.3975 19.6719 15.6025 19.4961 15.7666C19.3262 15.9307 19.1211 16.0127 18.8809 16.0127H1.60156C1.36133 16.0127 1.15625 15.9307 0.986328 15.7666C0.816406 15.6025 0.731445 15.3975 0.731445 15.1514ZM1.60156 12.1631V5.08789C1.60156 4.83594 1.67773 4.63672 1.83008 4.49023C1.98242 4.33789 2.19043 4.26172 2.4541 4.26172H4.31738C4.5752 4.26172 4.78027 4.33789 4.93262 4.49023C5.08496 4.63672 5.16113 4.83594 5.16113 5.08789V12.1631C5.16113 12.415 5.08496 12.6143 4.93262 12.7607C4.78027 12.9072 4.5752 12.9805 4.31738 12.9805H2.4541C2.19043 12.9805 1.98242 12.9072 1.83008 12.7607C1.67773 12.6143 1.60156 12.415 1.60156 12.1631ZM6.17188 12.1631V1.29102C6.17188 1.0332 6.24805 0.831055 6.40039 0.68457C6.55273 0.538086 6.76074 0.464844 7.02441 0.464844H8.8877C9.14551 0.464844 9.35059 0.538086 9.50293 0.68457C9.66113 0.831055 9.74023 1.0332 9.74023 1.29102V12.1631C9.74023 12.415 9.66113 12.6143 9.50293 12.7607C9.35059 12.9072 9.14551 12.9805 8.8877 12.9805H7.02441C6.76074 12.9805 6.55273 12.9072 6.40039 12.7607C6.24805 12.6143 6.17188 12.415 6.17188 12.1631ZM10.7422 12.1631V3.25977C10.7422 3.00195 10.8184 2.7998 10.9707 2.65332C11.123 2.50684 11.3281 2.43359 11.5859 2.43359H13.458C13.7158 2.43359 13.9209 2.50684 14.0732 2.65332C14.2256 2.7998 14.3018 3.00195 14.3018 3.25977V12.1631C14.3018 12.415 14.2256 12.6143 14.0732 12.7607C13.9209 12.9072 13.7158 12.9805 13.458 12.9805H11.5859C11.3281 12.9805 11.123 12.9072 10.9707 12.7607C10.8184 12.6143 10.7422 12.415 10.7422 12.1631ZM15.3125 12.1631V6.87207C15.3125 6.61426 15.3887 6.41211 15.541 6.26562C15.6934 6.11328 15.9014 6.03711 16.165 6.03711H18.0283C18.2861 6.03711 18.4912 6.11328 18.6436 6.26562C18.8018 6.41211 18.8809 6.61426 18.8809 6.87207V12.1631C18.8809 12.415 18.8018 12.6143 18.6436 12.7607C18.4912 12.9072 18.2861 12.9805 18.0283 12.9805H16.165C15.9014 12.9805 15.6934 12.9072 15.541 12.7607C15.3887 12.6143 15.3125 12.415 15.3125 12.1631Z" fill="#007AFF"/>
</svg>
