<svg width="15" height="21" viewBox="0 0 15 21" fill="none" xmlns="http://www.w3.org/2000/svg">
<path d="M0.301758 7.85059C0.301758 6.84863 0.486328 5.91113 0.855469 5.03809C1.23047 4.16504 1.74609 3.39746 2.40234 2.73535C3.06445 2.07324 3.8291 1.55469 4.69629 1.17969C5.56934 0.804687 6.50391 0.617188 7.5 0.617188C8.49609 0.617188 9.42773 0.804687 10.2949 1.17969C11.168 1.55469 11.9326 2.07324 12.5889 2.73535C13.251 3.39746 13.7695 4.16504 14.1445 5.03809C14.5195 5.91113 14.7041 6.84863 14.6982 7.85059C14.6924 8.90527 14.4756 9.89551 14.0479 10.8213C13.626 11.7471 13.0488 12.5381 12.3164 13.1943V19.6807C12.3164 19.9912 12.2402 20.2168 12.0879 20.3574C11.9355 20.498 11.748 20.5684 11.5254 20.5684C11.3613 20.5684 11.2119 20.5273 11.0771 20.4453C10.9424 20.3691 10.8076 20.2637 10.6729 20.1289L7.88672 17.3604C7.81641 17.2959 7.75488 17.249 7.70215 17.2197C7.64941 17.1963 7.59668 17.1846 7.54395 17.1846C7.49121 17.1846 7.43848 17.1963 7.38574 17.2197C7.33301 17.249 7.27148 17.2959 7.20117 17.3604L4.42383 20.1289C4.28906 20.2578 4.1543 20.3633 4.01953 20.4453C3.88477 20.5273 3.73242 20.5684 3.5625 20.5684C3.3457 20.5684 3.16113 20.498 3.00879 20.3574C2.85645 20.2168 2.78027 19.9912 2.78027 19.6807L2.77148 13.2822C2.01562 12.6201 1.41504 11.8203 0.969727 10.8828C0.524414 9.93945 0.301758 8.92871 0.301758 7.85059ZM2.05078 7.85059C2.05078 8.6123 2.18848 9.32422 2.46387 9.98633C2.74512 10.6484 3.13184 11.2314 3.62402 11.7354C4.12207 12.2393 4.70215 12.6348 5.36426 12.9219C6.03223 13.2031 6.74707 13.3438 7.50879 13.3438C8.27051 13.3496 8.98242 13.2119 9.64453 12.9307C10.3125 12.6436 10.8926 12.248 11.3848 11.7441C11.8828 11.2402 12.2725 10.6572 12.5537 9.99512C12.835 9.32715 12.9727 8.6123 12.9668 7.85059C12.9668 7.08887 12.8262 6.37695 12.5449 5.71484C12.2637 5.04688 11.874 4.46094 11.376 3.95703C10.8838 3.44727 10.3066 3.05176 9.64453 2.77051C8.98242 2.4834 8.27051 2.33984 7.50879 2.33984C6.74707 2.33984 6.03223 2.4834 5.36426 2.77051C4.70215 3.05176 4.12207 3.44727 3.62402 3.95703C3.13184 4.46094 2.74512 5.04688 2.46387 5.71484C2.18848 6.37695 2.05078 7.08887 2.05078 7.85059Z" fill="#237DFE"/>
</svg>
