<svg width="22" height="21" viewBox="0 0 22 21" fill="none" xmlns="http://www.w3.org/2000/svg">
<path d="M1.31445 20.1729C0.916016 20.1729 0.608398 20.0645 0.391602 19.8477C0.180664 19.6309 0.0751953 19.3232 0.0751953 18.9248V4.36133C0.0751953 3.96875 0.180664 3.66406 0.391602 3.44727C0.608398 3.22461 0.916016 3.11328 1.31445 3.11328H2.95801C3.35645 3.11328 3.66113 3.22461 3.87207 3.44727C4.08887 3.66406 4.19727 3.96875 4.19727 4.36133V18.9248C4.19727 19.3232 4.08887 19.6309 3.87207 19.8477C3.66113 20.0645 3.35645 20.1729 2.95801 20.1729H1.31445ZM6.48242 20.1729C6.08398 20.1729 5.77637 20.0645 5.55957 19.8477C5.34277 19.6309 5.23438 19.3232 5.23438 18.9248V7.47266C5.23438 7.08008 5.34277 6.77539 5.55957 6.55859C5.77637 6.3418 6.08398 6.2334 6.48242 6.2334H9.86621C10.2705 6.2334 10.5781 6.3418 10.7891 6.55859C11.0059 6.77539 11.1143 7.08008 11.1143 7.47266V18.9248C11.1143 19.3232 11.0059 19.6309 10.7891 19.8477C10.5781 20.0645 10.2705 20.1729 9.86621 20.1729H6.48242ZM7.26465 9.50293H9.11035C9.27441 9.50293 9.41211 9.44727 9.52344 9.33594C9.63477 9.22461 9.69043 9.08691 9.69043 8.92285C9.69043 8.75879 9.6377 8.62109 9.53223 8.50977C9.42676 8.39258 9.28613 8.33398 9.11035 8.33398H7.26465C7.09473 8.33398 6.95117 8.39258 6.83398 8.50977C6.72266 8.62109 6.66699 8.75879 6.66699 8.92285C6.66699 9.08691 6.72266 9.22461 6.83398 9.33594C6.95117 9.44727 7.09473 9.50293 7.26465 9.50293ZM7.26465 18.0723H9.11035C9.27441 18.0723 9.41211 18.0137 9.52344 17.8965C9.63477 17.7852 9.69043 17.6475 9.69043 17.4834C9.69043 17.3135 9.63477 17.1729 9.52344 17.0615C9.41211 16.9502 9.27441 16.8945 9.11035 16.8945H7.26465C7.09473 16.8945 6.95117 16.9502 6.83398 17.0615C6.72266 17.1729 6.66699 17.3135 6.66699 17.4834C6.66699 17.6475 6.72266 17.7852 6.83398 17.8965C6.95117 18.0137 7.09473 18.0723 7.26465 18.0723ZM13.3994 20.1729C13.001 20.1729 12.6934 20.0645 12.4766 19.8477C12.2656 19.6309 12.1602 19.3232 12.1602 18.9248V1.88281C12.1602 1.49023 12.2656 1.18555 12.4766 0.96875C12.6934 0.746094 13.001 0.634766 13.3994 0.634766H15.4385C15.8428 0.634766 16.1504 0.746094 16.3613 0.96875C16.5781 1.18555 16.6865 1.49023 16.6865 1.88281V18.9248C16.6865 19.3232 16.5781 19.6309 16.3613 19.8477C16.1504 20.0645 15.8428 20.1729 15.4385 20.1729H13.3994ZM19.4902 20.2168C19.0977 20.2637 18.7842 20.1904 18.5498 19.9971C18.3154 19.8037 18.1748 19.5107 18.1279 19.1182L16.5195 4.7832C16.4844 4.39062 16.5605 4.07715 16.748 3.84277C16.9355 3.60254 17.2256 3.45898 17.6182 3.41211L18.9365 3.22754C19.335 3.18066 19.6514 3.25391 19.8857 3.44727C20.126 3.64062 20.2666 3.93359 20.3076 4.32617L21.9072 18.6523C21.9541 19.0508 21.8838 19.3672 21.6963 19.6016C21.5088 19.8418 21.2158 19.9854 20.8174 20.0322L19.4902 20.2168Z" fill="#007AFF"/>
</svg>
