<svg width="13" height="21" viewBox="0 0 13 21" fill="none" xmlns="http://www.w3.org/2000/svg">
<path d="M0.264648 5.52148C0.264648 4.74219 0.416992 4.01855 0.72168 3.35059C1.03223 2.68262 1.45996 2.09668 2.00488 1.59277C2.55566 1.08887 3.19141 0.699219 3.91211 0.423828C4.63867 0.142578 5.41797 0.00195312 6.25 0.00195312C7.07617 0.00195312 7.85254 0.142578 8.5791 0.423828C9.30566 0.699219 9.94141 1.08887 10.4863 1.59277C11.0371 2.09668 11.4648 2.68262 11.7695 3.35059C12.0742 4.01855 12.2266 4.74219 12.2266 5.52148C12.2266 6.18945 12.1533 6.78418 12.0068 7.30566C11.8604 7.82715 11.6729 8.33984 11.4443 8.84375C11.2158 9.34766 10.9814 9.89844 10.7412 10.4961C10.501 11.0938 10.2871 11.7969 10.0996 12.6055C9.91211 13.4141 9.78613 14.3926 9.72168 15.541C9.70996 15.7461 9.63965 15.9102 9.51074 16.0332C9.3877 16.1504 9.21777 16.209 9.00098 16.209H3.49023C3.27344 16.209 3.10352 16.1504 2.98047 16.0332C2.85742 15.9102 2.79004 15.7461 2.77832 15.541C2.71387 14.3926 2.58496 13.4141 2.3916 12.6055C2.2041 11.7969 1.99023 11.0938 1.75 10.4961C1.51562 9.89844 1.28418 9.34766 1.05566 8.84375C0.827148 8.33984 0.636719 7.82715 0.484375 7.30566C0.337891 6.78418 0.264648 6.18945 0.264648 5.52148ZM3.42871 18.248C3.27051 18.248 3.13574 18.1924 3.02441 18.0811C2.91309 17.9697 2.85742 17.8379 2.85742 17.6855C2.85742 17.5332 2.91309 17.4014 3.02441 17.29C3.13574 17.1787 3.27051 17.123 3.42871 17.123H9.07129C9.22949 17.123 9.36133 17.1787 9.4668 17.29C9.57812 17.4014 9.63379 17.5332 9.63379 17.6855C9.63379 17.8379 9.57812 17.9697 9.4668 18.0811C9.36133 18.1924 9.22949 18.248 9.07129 18.248H3.42871ZM6.25 20.8584C5.54688 20.8584 4.94336 20.7031 4.43945 20.3926C3.94141 20.082 3.6748 19.6719 3.63965 19.1621H8.85156C8.80469 19.6719 8.53223 20.082 8.03418 20.3926C7.53613 20.7031 6.94141 20.8584 6.25 20.8584Z" fill="#237DFE"/>
</svg>
